<svg width="271" height="272" viewBox="0 0 271 272" fill="none" xmlns="http://www.w3.org/2000/svg">
<path d="M135.5 0.5C60.6 0.5 0 61.2 0 136C0 210.9 60.7 271.5 135.5 271.5C210.3 271.5 271 210.8 271 136C271 61.1 210.3 0.5 135.5 0.5ZM145.2 166.9C131.8 174.9 114 179.9 95.4 169.7C95.4 169.7 95.3 169.7 95.3 169.6L34 136C34 136 41.9 126.7 58.6 122.6C62 121.8 65.7 122.2 68.7 123.9L107.9 145.4C126.6 155.6 149.1 156.3 168.1 146.7C168.5 146.5 168.9 146.3 169.2 146.1C169.3 146.2 159.8 158.3 145.2 166.9ZM212.3 149.3C208.9 150.1 205.3 149.7 202.2 148L163 126.5C144.4 116.3 121.8 115.6 102.8 125.2C102.4 125.4 102 125.6 101.7 125.8C101.7 125.8 111.2 113.7 125.7 105.1C139.1 97.1 156.9 92.1 175.5 102.3C175.5 102.3 175.6 102.3 175.6 102.4L236.9 136C236.9 136 229 145.2 212.3 149.3Z" fill="#574AFF"/>
<path d="M236.9 135.999C236.9 135.999 229 145.199 212.3 149.299C208.9 150.099 205.3 149.699 202.2 147.999L163 126.499C144.4 116.299 121.8 115.599 102.8 125.199C102.4 125.399 102 125.599 101.7 125.799C101.7 125.799 111.2 113.699 125.7 105.099C139.1 97.099 156.9 92.099 175.5 102.299C175.5 102.299 175.6 102.299 175.6 102.399L236.9 135.999Z" fill="white"/>
<path d="M169.3 146.2C169.3 146.2 159.8 158.299 145.3 166.899C131.9 174.899 114.1 179.9 95.5 169.7C95.5 169.7 95.4 169.699 95.4 169.599L34 135.999C34 135.999 41.9 126.699 58.6 122.599C62 121.799 65.7 122.199 68.7 123.899L107.9 145.399C126.6 155.599 149.1 156.3 168.1 146.7C168.5 146.6 168.9 146.4 169.3 146.2Z" fill="white"/>
</svg>
